<mxfile host="Electron" agent="Mozilla/5.0 (X11; Linux x86_64) AppleWebKit/537.36 (KHTML, like Gecko) draw.io/27.0.9 Chrome/134.0.6998.205 Electron/35.4.0 Safari/537.36" version="27.0.9">
  <diagram name="Page-1" id="Ndfh0ppzyMiiv3JRRc5y">
    <mxGraphModel dx="743" dy="810" grid="1" gridSize="10" guides="1" tooltips="1" connect="1" arrows="1" fold="1" page="1" pageScale="1" pageWidth="850" pageHeight="1100" math="0" shadow="0">
      <root>
        <mxCell id="0" />
        <mxCell id="1" parent="0" />
        <mxCell id="qAL91am21IPCpd9lBBOn-1" value="paciente" style="whiteSpace=wrap;html=1;align=center;" vertex="1" parent="1">
          <mxGeometry x="270" y="320" width="100" height="40" as="geometry" />
        </mxCell>
        <mxCell id="qAL91am21IPCpd9lBBOn-2" value="prontuario" style="whiteSpace=wrap;html=1;align=center;" vertex="1" parent="1">
          <mxGeometry x="530" y="320" width="100" height="40" as="geometry" />
        </mxCell>
        <mxCell id="qAL91am21IPCpd9lBBOn-13" style="edgeStyle=orthogonalEdgeStyle;rounded=0;orthogonalLoop=1;jettySize=auto;html=1;exitX=0.5;exitY=0;exitDx=0;exitDy=0;entryX=0.5;entryY=1;entryDx=0;entryDy=0;" edge="1" parent="1" source="qAL91am21IPCpd9lBBOn-3" target="qAL91am21IPCpd9lBBOn-9">
          <mxGeometry relative="1" as="geometry" />
        </mxCell>
        <mxCell id="qAL91am21IPCpd9lBBOn-17" style="edgeStyle=orthogonalEdgeStyle;rounded=0;orthogonalLoop=1;jettySize=auto;html=1;exitX=1;exitY=0.5;exitDx=0;exitDy=0;" edge="1" parent="1" source="qAL91am21IPCpd9lBBOn-3" target="qAL91am21IPCpd9lBBOn-7">
          <mxGeometry relative="1" as="geometry" />
        </mxCell>
        <mxCell id="qAL91am21IPCpd9lBBOn-3" value="consulta" style="whiteSpace=wrap;html=1;align=center;" vertex="1" parent="1">
          <mxGeometry x="270" y="480" width="100" height="40" as="geometry" />
        </mxCell>
        <mxCell id="qAL91am21IPCpd9lBBOn-11" style="edgeStyle=orthogonalEdgeStyle;rounded=0;orthogonalLoop=1;jettySize=auto;html=1;exitX=1;exitY=0.5;exitDx=0;exitDy=0;entryX=0;entryY=0.5;entryDx=0;entryDy=0;" edge="1" parent="1" source="qAL91am21IPCpd9lBBOn-4" target="qAL91am21IPCpd9lBBOn-10">
          <mxGeometry relative="1" as="geometry" />
        </mxCell>
        <mxCell id="qAL91am21IPCpd9lBBOn-4" value="funcionario" style="whiteSpace=wrap;html=1;align=center;" vertex="1" parent="1">
          <mxGeometry x="10" y="480" width="100" height="40" as="geometry" />
        </mxCell>
        <mxCell id="qAL91am21IPCpd9lBBOn-16" style="edgeStyle=orthogonalEdgeStyle;rounded=0;orthogonalLoop=1;jettySize=auto;html=1;exitX=1;exitY=0.5;exitDx=0;exitDy=0;entryX=0;entryY=0.5;entryDx=0;entryDy=0;" edge="1" parent="1" source="qAL91am21IPCpd9lBBOn-6" target="qAL91am21IPCpd9lBBOn-2">
          <mxGeometry relative="1" as="geometry" />
        </mxCell>
        <mxCell id="qAL91am21IPCpd9lBBOn-6" value="possui" style="shape=rhombus;perimeter=rhombusPerimeter;whiteSpace=wrap;html=1;align=center;" vertex="1" parent="1">
          <mxGeometry x="390" y="310" width="120" height="60" as="geometry" />
        </mxCell>
        <mxCell id="qAL91am21IPCpd9lBBOn-18" style="edgeStyle=orthogonalEdgeStyle;rounded=0;orthogonalLoop=1;jettySize=auto;html=1;exitX=1;exitY=0.5;exitDx=0;exitDy=0;entryX=0.5;entryY=1;entryDx=0;entryDy=0;" edge="1" parent="1" source="qAL91am21IPCpd9lBBOn-7" target="qAL91am21IPCpd9lBBOn-2">
          <mxGeometry relative="1" as="geometry" />
        </mxCell>
        <mxCell id="qAL91am21IPCpd9lBBOn-7" value="compoe" style="shape=rhombus;perimeter=rhombusPerimeter;whiteSpace=wrap;html=1;align=center;" vertex="1" parent="1">
          <mxGeometry x="420" y="410" width="120" height="60" as="geometry" />
        </mxCell>
        <mxCell id="qAL91am21IPCpd9lBBOn-14" style="edgeStyle=orthogonalEdgeStyle;rounded=0;orthogonalLoop=1;jettySize=auto;html=1;exitX=0.5;exitY=0;exitDx=0;exitDy=0;entryX=0.5;entryY=1;entryDx=0;entryDy=0;" edge="1" parent="1" source="qAL91am21IPCpd9lBBOn-9" target="qAL91am21IPCpd9lBBOn-1">
          <mxGeometry relative="1" as="geometry" />
        </mxCell>
        <mxCell id="qAL91am21IPCpd9lBBOn-9" value="marca" style="shape=rhombus;perimeter=rhombusPerimeter;whiteSpace=wrap;html=1;align=center;" vertex="1" parent="1">
          <mxGeometry x="260" y="390" width="120" height="60" as="geometry" />
        </mxCell>
        <mxCell id="qAL91am21IPCpd9lBBOn-12" style="edgeStyle=orthogonalEdgeStyle;rounded=0;orthogonalLoop=1;jettySize=auto;html=1;exitX=1;exitY=0.5;exitDx=0;exitDy=0;entryX=0;entryY=0.5;entryDx=0;entryDy=0;" edge="1" parent="1" source="qAL91am21IPCpd9lBBOn-10" target="qAL91am21IPCpd9lBBOn-3">
          <mxGeometry relative="1" as="geometry" />
        </mxCell>
        <mxCell id="qAL91am21IPCpd9lBBOn-10" value="atende" style="shape=rhombus;perimeter=rhombusPerimeter;whiteSpace=wrap;html=1;align=center;" vertex="1" parent="1">
          <mxGeometry x="130" y="470" width="120" height="60" as="geometry" />
        </mxCell>
        <mxCell id="qAL91am21IPCpd9lBBOn-15" style="edgeStyle=orthogonalEdgeStyle;rounded=0;orthogonalLoop=1;jettySize=auto;html=1;exitX=1;exitY=0.5;exitDx=0;exitDy=0;entryX=0.083;entryY=0.483;entryDx=0;entryDy=0;entryPerimeter=0;" edge="1" parent="1" source="qAL91am21IPCpd9lBBOn-1" target="qAL91am21IPCpd9lBBOn-6">
          <mxGeometry relative="1" as="geometry" />
        </mxCell>
      </root>
    </mxGraphModel>
  </diagram>
</mxfile>
